<svg xmlns="http://www.w3.org/2000/svg" xmlns:xlink="http://www.w3.org/1999/xlink" width="500" zoomAndPan="magnify" viewBox="0 0 375 374.999991" height="500" preserveAspectRatio="xMidYMid meet" version="1.0"><defs><clipPath id="4324b004d5"><path d="M 37.5 18 L 337.5 18 L 337.5 357 L 37.5 357 Z M 37.5 18 " clip-rule="nonzero"/></clipPath><clipPath id="0de74a2cda"><path d="M 117.753906 78.519531 L 257.253906 78.519531 L 257.253906 296.769531 L 117.753906 296.769531 Z M 117.753906 78.519531 " clip-rule="nonzero"/></clipPath></defs><rect x="-37.5" width="450" fill="#ffffff" y="-37.499999" height="449.999989" fill-opacity="1"/><rect x="-37.5" width="450" fill="#ffffff" y="-37.499999" height="449.999989" fill-opacity="1"/><g clip-path="url(#4324b004d5)"><path fill="#000000" d="M 337.320312 116.710938 L 337.320312 258.175781 C 337.320312 267.902344 332.132812 276.890625 323.699219 281.75 L 201.121094 352.472656 C 192.6875 357.328125 182.3125 357.328125 173.878906 352.472656 L 51.308594 281.738281 C 42.878906 276.882812 37.691406 267.890625 37.691406 258.164062 L 37.691406 116.710938 C 37.691406 106.984375 42.878906 97.996094 51.308594 93.136719 L 173.878906 22.40625 C 182.3125 17.546875 192.6875 17.546875 201.121094 22.40625 L 323.699219 93.128906 C 332.121094 97.996094 337.320312 106.984375 337.320312 116.710938 Z M 337.320312 116.710938 " fill-opacity="1" fill-rule="nonzero"/></g><path fill="#000000" d="M 314.980469 98.917969 L 200.476562 32.839844 C 192.472656 28.226562 182.535156 28.226562 174.535156 32.839844 L 60.027344 98.917969 C 52.027344 103.53125 47.0625 112.128906 47.0625 121.367188 L 47.0625 253.511719 C 47.0625 262.746094 52.035156 271.347656 60.027344 275.960938 L 174.535156 342.039062 C 178.535156 344.351562 183.019531 345.496094 187.5 345.496094 C 191.980469 345.496094 196.464844 344.339844 200.464844 342.039062 L 314.972656 275.960938 C 322.972656 271.347656 327.9375 262.746094 327.9375 253.511719 L 327.9375 121.367188 C 327.945312 112.128906 322.972656 103.53125 314.980469 98.917969 Z M 326.964844 253.511719 C 326.964844 262.390625 322.1875 270.671875 314.492188 275.113281 L 199.984375 341.191406 C 192.289062 345.628906 182.722656 345.628906 175.035156 341.191406 L 60.53125 275.113281 C 52.835938 270.671875 48.054688 262.398438 48.054688 253.511719 L 48.054688 121.367188 C 48.054688 112.488281 52.835938 104.203125 60.53125 99.765625 L 175.035156 33.6875 C 182.730469 29.25 192.289062 29.25 199.984375 33.6875 L 314.492188 99.765625 C 322.1875 104.203125 326.964844 112.476562 326.964844 121.367188 Z M 326.964844 253.511719 " fill-opacity="1" fill-rule="nonzero"/><g clip-path="url(#0de74a2cda)"><path fill="#ffffff" d="M 183.414062 78.523438 C 172.246094 78.523438 163.917969 78.914062 157.667969 80.296875 C 154.535156 80.996094 151.863281 81.984375 149.628906 83.570312 C 147.398438 85.15625 145.628906 87.609375 145.269531 90.390625 C 145.050781 92.042969 145.015625 91.992188 144.589844 93.253906 C 144.164062 94.515625 143.636719 96.546875 142.957031 100.621094 C 140.878906 113.117188 134.339844 111.789062 128.652344 118.488281 C 122.09375 123.261719 117.753906 130.9375 117.753906 139.632812 L 117.753906 235.660156 C 117.753906 244.355469 122.09375 252.027344 128.652344 256.800781 C 128.703125 256.851562 128.738281 256.886719 128.789062 256.9375 C 128.976562 257.074219 129.144531 257.226562 129.332031 257.347656 C 134.78125 263.210938 140.691406 262.734375 142.957031 274.804688 C 143.636719 278.472656 144.214844 280.3125 144.589844 281.488281 C 144.964844 282.667969 145.015625 282.972656 145.269531 284.898438 C 145.613281 287.59375 147.332031 289.996094 149.496094 291.582031 C 151.65625 293.167969 154.195312 294.140625 157.257812 294.855469 C 163.390625 296.289062 171.683594 296.765625 182.871094 296.765625 C 194.042969 296.765625 202.367188 296.375 208.617188 294.992188 C 211.75 294.292969 214.425781 293.304688 216.65625 291.71875 C 218.886719 290.132812 220.65625 287.679688 221.015625 284.898438 C 221.238281 283.246094 221.269531 283.296875 221.695312 282.035156 C 222.121094 280.773438 222.648438 278.746094 223.332031 274.667969 C 225.324219 262.613281 231.402344 263.296875 236.953125 257.347656 C 237.140625 257.226562 237.3125 257.074219 237.5 256.9375 C 237.550781 256.886719 237.585938 256.851562 237.636719 256.800781 C 244.191406 252.027344 248.535156 244.355469 248.535156 235.660156 L 248.535156 226.929688 C 250.933594 226.929688 252.894531 224.96875 252.894531 222.5625 L 252.894531 196.375 C 252.894531 193.972656 250.933594 192.011719 248.535156 192.011719 L 248.535156 178.914062 C 253.386719 178.558594 257.253906 174.449219 257.253906 169.503906 L 257.253906 153.410156 C 257.253906 148.464844 253.386719 144.355469 248.535156 143.996094 L 248.535156 139.632812 C 248.535156 130.9375 244.191406 123.261719 237.636719 118.488281 C 237.585938 118.4375 237.550781 118.402344 237.5 118.351562 C 237.3125 118.214844 237.140625 118.0625 236.953125 117.945312 C 231.503906 112.078125 225.597656 112.554688 223.332031 100.484375 C 222.648438 96.820312 222.070312 94.976562 221.695312 93.800781 C 221.320312 92.625 221.269531 92.316406 221.015625 90.390625 C 220.675781 87.695312 218.957031 85.292969 216.792969 83.707031 C 214.628906 82.121094 212.09375 81.148438 209.027344 80.433594 C 202.898438 79 194.605469 78.523438 183.414062 78.523438 Z M 183.414062 87.253906 C 194.332031 87.253906 202.351562 87.78125 207.121094 88.890625 C 209.503906 89.453125 210.917969 90.152344 211.617188 90.664062 C 212.3125 91.175781 212.246094 91.277344 212.296875 91.617188 C 212.601562 93.953125 213.027344 95.265625 213.386719 96.390625 C 213.746094 97.515625 214.117188 98.726562 214.75 102.121094 C 215.652344 106.945312 217.421875 110.511719 219.378906 113.441406 L 147.042969 113.441406 C 149 110.492188 150.738281 106.84375 151.539062 101.984375 C 152.167969 98.199219 152.578125 96.9375 152.898438 95.984375 C 153.222656 95.027344 153.699219 93.816406 153.988281 91.617188 C 154.042969 91.242188 153.9375 91.191406 154.671875 90.664062 C 155.402344 90.132812 156.96875 89.4375 159.4375 88.890625 C 164.359375 87.800781 172.484375 87.253906 183.414062 87.253906 Z M 143.910156 122.171875 L 222.378906 122.171875 C 232.050781 122.171875 239.816406 129.945312 239.816406 139.632812 L 239.816406 149.042969 C 238.367188 151.738281 237.363281 155.625 237.363281 161.457031 C 237.363281 167.269531 238.386719 171.15625 239.816406 173.867188 L 239.816406 235.660156 C 239.816406 245.34375 232.050781 253.117188 222.378906 253.117188 L 143.910156 253.117188 C 134.238281 253.117188 126.472656 245.34375 126.472656 235.660156 L 126.472656 139.632812 C 126.472656 129.945312 134.238281 122.171875 143.910156 122.171875 Z M 247.851562 152.726562 C 248.296875 152.726562 248.535156 152.964844 248.535156 153.410156 L 248.535156 169.503906 C 248.535156 169.945312 248.296875 170.1875 247.851562 170.1875 L 247.714844 170.1875 C 247.664062 170.117188 247.648438 170.152344 247.582031 170.050781 C 247 169.113281 246.082031 166.722656 246.082031 161.457031 C 246.082031 156.1875 247.136719 153.785156 247.714844 152.863281 C 247.800781 152.726562 247.785156 152.8125 247.851562 152.726562 Z M 146.90625 261.847656 L 219.246094 261.847656 C 217.285156 264.796875 215.550781 268.445312 214.75 273.304688 C 214.117188 277.089844 213.710938 278.351562 213.386719 279.308594 C 213.0625 280.261719 212.585938 281.472656 212.296875 283.671875 C 212.246094 284.046875 212.347656 284.097656 211.617188 284.628906 C 210.882812 285.15625 209.316406 285.855469 206.847656 286.398438 C 201.925781 287.492188 193.804688 288.039062 182.871094 288.039062 C 171.957031 288.039062 163.933594 287.507812 159.167969 286.398438 C 156.78125 285.835938 155.371094 285.136719 154.671875 284.628906 C 153.972656 284.117188 154.042969 284.011719 153.988281 283.671875 C 153.683594 281.335938 153.257812 280.023438 152.898438 278.898438 C 152.542969 277.773438 152.167969 276.5625 151.539062 273.167969 C 150.636719 268.34375 148.863281 264.78125 146.90625 261.847656 Z M 146.90625 261.847656 " fill-opacity="1" fill-rule="nonzero"/></g></svg>