<svg xmlns="http://www.w3.org/2000/svg" xmlns:xlink="http://www.w3.org/1999/xlink" width="500" zoomAndPan="magnify" viewBox="0 0 375 374.999991" height="500" preserveAspectRatio="xMidYMid meet" version="1.0"><defs><g/><clipPath id="57f36ef4ea"><path d="M 75.816406 17 L 299.316406 17 L 299.316406 269 L 75.816406 269 Z M 75.816406 17 " clip-rule="nonzero"/></clipPath><clipPath id="7351c88018"><path d="M 135.570312 61.863281 L 239.070312 61.863281 L 239.070312 223.863281 L 135.570312 223.863281 Z M 135.570312 61.863281 " clip-rule="nonzero"/></clipPath></defs><g clip-path="url(#57f36ef4ea)"><path fill="#ffffff" d="M 299.1875 90.238281 L 299.1875 195.476562 C 299.1875 202.714844 295.320312 209.402344 289.039062 213.015625 L 197.714844 265.625 C 191.433594 269.242188 183.703125 269.242188 177.417969 265.625 L 86.101562 213.007812 C 79.820312 209.394531 75.957031 202.707031 75.957031 195.46875 L 75.957031 90.238281 C 75.957031 83.003906 79.820312 76.316406 86.101562 72.699219 L 177.417969 20.082031 C 183.703125 16.46875 191.433594 16.46875 197.714844 20.082031 L 289.039062 72.695312 C 295.3125 76.316406 299.1875 83.003906 299.1875 90.238281 Z M 299.1875 90.238281 " fill-opacity="1" fill-rule="nonzero"/></g><path fill="#000000" d="M 282.542969 77 L 197.234375 27.84375 C 191.273438 24.410156 183.871094 24.410156 177.90625 27.84375 L 92.597656 77 C 86.636719 80.429688 82.9375 86.828125 82.9375 93.699219 L 82.9375 192.007812 C 82.9375 198.878906 86.644531 205.277344 92.597656 208.707031 L 177.90625 257.867188 C 180.886719 259.585938 184.226562 260.4375 187.566406 260.4375 C 190.90625 260.4375 194.246094 259.578125 197.226562 257.867188 L 282.535156 208.707031 C 288.496094 205.277344 292.195312 198.878906 292.195312 192.007812 L 292.195312 93.699219 C 292.203125 86.828125 288.496094 80.429688 282.542969 77 Z M 291.472656 192.007812 C 291.472656 198.613281 287.910156 204.773438 282.175781 208.078125 L 196.867188 257.234375 C 191.132812 260.535156 184.007812 260.535156 178.28125 257.234375 L 92.972656 208.078125 C 87.238281 204.773438 83.679688 198.621094 83.679688 192.007812 L 83.679688 93.699219 C 83.679688 87.097656 87.238281 80.933594 92.972656 77.632812 L 178.28125 28.472656 C 184.015625 25.171875 191.132812 25.171875 196.867188 28.472656 L 282.175781 77.632812 C 287.910156 80.933594 291.472656 87.089844 291.472656 93.699219 Z M 291.472656 192.007812 " fill-opacity="1" fill-rule="nonzero"/><g clip-path="url(#7351c88018)"><path fill="#000000" d="M 184.289062 61.871094 C 176 61.871094 169.820312 62.160156 165.183594 63.1875 C 162.859375 63.707031 160.875 64.441406 159.222656 65.617188 C 157.566406 66.792969 156.25 68.617188 155.988281 70.679688 C 155.820312 71.90625 155.796875 71.867188 155.480469 72.804688 C 155.164062 73.742188 154.773438 75.246094 154.269531 78.273438 C 152.726562 87.546875 147.875 86.5625 143.65625 91.535156 C 138.792969 95.078125 135.570312 100.773438 135.570312 107.226562 L 135.570312 178.5 C 135.570312 184.957031 138.792969 190.648438 143.65625 194.195312 C 143.691406 194.230469 143.71875 194.257812 143.757812 194.296875 C 143.894531 194.394531 144.023438 194.511719 144.160156 194.597656 C 148.203125 198.953125 152.585938 198.597656 154.269531 207.558594 C 154.773438 210.277344 155.203125 211.644531 155.480469 212.519531 C 155.757812 213.390625 155.796875 213.621094 155.988281 215.050781 C 156.238281 217.050781 157.515625 218.832031 159.121094 220.011719 C 160.722656 221.1875 162.605469 221.910156 164.882812 222.441406 C 169.429688 223.503906 175.582031 223.859375 183.882812 223.859375 C 192.171875 223.859375 198.347656 223.566406 202.984375 222.542969 C 205.3125 222.023438 207.292969 221.289062 208.949219 220.113281 C 210.605469 218.933594 211.917969 217.113281 212.183594 215.050781 C 212.347656 213.820312 212.375 213.859375 212.6875 212.921875 C 213.003906 211.988281 213.398438 210.480469 213.902344 207.457031 C 215.378906 198.507812 219.890625 199.015625 224.007812 194.597656 C 224.148438 194.511719 224.273438 194.394531 224.414062 194.296875 C 224.453125 194.257812 224.476562 194.230469 224.515625 194.195312 C 229.378906 190.648438 232.601562 184.957031 232.601562 178.5 L 232.601562 172.023438 C 234.382812 172.023438 235.835938 170.566406 235.835938 168.78125 L 235.835938 149.34375 C 235.835938 147.558594 234.382812 146.105469 232.601562 146.105469 L 232.601562 136.382812 C 236.203125 136.117188 239.070312 133.070312 239.070312 129.398438 L 239.070312 117.453125 C 239.070312 113.78125 236.203125 110.734375 232.601562 110.46875 L 232.601562 107.226562 C 232.601562 100.773438 229.378906 95.078125 224.515625 91.535156 C 224.476562 91.496094 224.453125 91.472656 224.414062 91.433594 C 224.273438 91.332031 224.148438 91.21875 224.007812 91.128906 C 219.964844 86.777344 215.582031 87.128906 213.902344 78.171875 C 213.398438 75.449219 212.96875 74.082031 212.6875 73.210938 C 212.410156 72.335938 212.375 72.109375 212.183594 70.679688 C 211.929688 68.679688 210.65625 66.894531 209.050781 65.71875 C 207.445312 64.542969 205.5625 63.820312 203.289062 63.289062 C 198.742188 62.226562 192.589844 61.871094 184.289062 61.871094 Z M 184.289062 68.351562 C 192.386719 68.351562 198.335938 68.742188 201.875 69.566406 C 203.644531 69.984375 204.691406 70.5 205.210938 70.882812 C 205.726562 71.261719 205.675781 71.335938 205.714844 71.589844 C 205.941406 73.324219 206.257812 74.296875 206.523438 75.132812 C 206.789062 75.96875 207.066406 76.867188 207.535156 79.386719 C 208.203125 82.96875 209.519531 85.613281 210.972656 87.789062 L 157.300781 87.789062 C 158.753906 85.597656 160.042969 82.890625 160.636719 79.285156 C 161.101562 76.476562 161.40625 75.539062 161.648438 74.828125 C 161.886719 74.121094 162.242188 73.222656 162.457031 71.589844 C 162.492188 71.3125 162.417969 71.273438 162.960938 70.882812 C 163.503906 70.488281 164.667969 69.96875 166.5 69.566406 C 170.148438 68.753906 176.175781 68.351562 184.289062 68.351562 Z M 154.976562 94.269531 L 213.195312 94.269531 C 220.371094 94.269531 226.132812 100.039062 226.132812 107.226562 L 226.132812 114.210938 C 225.058594 116.210938 224.3125 119.097656 224.3125 123.425781 C 224.3125 127.742188 225.070312 130.625 226.132812 132.640625 L 226.132812 178.5 C 226.132812 185.691406 220.371094 191.460938 213.195312 191.460938 L 154.976562 191.460938 C 147.800781 191.460938 142.039062 185.691406 142.039062 178.5 L 142.039062 107.226562 C 142.039062 100.039062 147.800781 94.269531 154.976562 94.269531 Z M 232.09375 116.945312 C 232.425781 116.945312 232.601562 117.125 232.601562 117.453125 L 232.601562 129.398438 C 232.601562 129.726562 232.425781 129.90625 232.09375 129.90625 L 231.996094 129.90625 C 231.957031 129.855469 231.945312 129.878906 231.894531 129.804688 C 231.464844 129.109375 230.78125 127.335938 230.78125 123.425781 C 230.78125 119.515625 231.566406 117.730469 231.996094 117.046875 C 232.058594 116.945312 232.042969 117.007812 232.09375 116.945312 Z M 157.199219 197.941406 L 210.871094 197.941406 C 209.417969 200.128906 208.128906 202.835938 207.535156 206.445312 C 207.066406 209.253906 206.761719 210.191406 206.523438 210.898438 C 206.285156 211.605469 205.929688 212.507812 205.714844 214.136719 C 205.675781 214.417969 205.753906 214.453125 205.210938 214.847656 C 204.667969 215.238281 203.503906 215.757812 201.671875 216.164062 C 198.019531 216.972656 191.996094 217.378906 183.882812 217.378906 C 175.785156 217.378906 169.832031 216.984375 166.296875 216.164062 C 164.527344 215.746094 163.480469 215.226562 162.960938 214.847656 C 162.441406 214.46875 162.492188 214.390625 162.457031 214.136719 C 162.226562 212.40625 161.910156 211.429688 161.648438 210.59375 C 161.382812 209.757812 161.101562 208.859375 160.636719 206.34375 C 159.964844 202.761719 158.652344 200.117188 157.199219 197.941406 Z M 157.199219 197.941406 " fill-opacity="1" fill-rule="nonzero"/></g><g fill="#ffffff" fill-opacity="1"><g transform="translate(44.911177, 344.631246)"><g><path d="M 4.03125 -2.75 L 4.03125 -46.46875 C 4.03125 -47.1875 4.300781 -47.8125 4.84375 -48.34375 C 5.382812 -48.882812 6.054688 -49.15625 6.859375 -49.15625 L 20.171875 -49.15625 C 30.796875 -49.15625 36.109375 -44.472656 36.109375 -35.109375 C 36.109375 -31.429688 35.3125 -28.46875 33.71875 -26.21875 C 32.132812 -23.976562 29.992188 -22.457031 27.296875 -21.65625 L 36.109375 -5.3125 C 36.335938 -5.039062 36.453125 -4.679688 36.453125 -4.234375 C 36.453125 -3.117188 35.867188 -2.078125 34.703125 -1.109375 C 33.535156 -0.140625 32.300781 0.34375 31 0.34375 C 29.695312 0.34375 28.6875 -0.351562 27.96875 -1.75 L 18.421875 -20.3125 L 12.78125 -20.3125 L 12.78125 -2.75 C 12.78125 -1.90625 12.351562 -1.234375 11.5 -0.734375 C 10.644531 -0.242188 9.613281 0 8.40625 0 C 7.238281 0 6.21875 -0.242188 5.34375 -0.734375 C 4.46875 -1.234375 4.03125 -1.90625 4.03125 -2.75 Z M 12.78125 -27.171875 L 20.171875 -27.171875 C 24.972656 -27.171875 27.375 -29.546875 27.375 -34.296875 C 27.375 -39.097656 24.972656 -41.5 20.171875 -41.5 L 12.78125 -41.5 Z M 12.78125 -27.171875 "/></g></g></g><g fill="#ffffff" fill-opacity="1"><g transform="translate(83.239269, 344.631246)"><g><path d="M 4.03125 -2.75 L 4.03125 -46.40625 C 4.03125 -47.257812 4.410156 -47.929688 5.171875 -48.421875 C 5.941406 -48.910156 6.84375 -49.15625 7.875 -49.15625 L 31.8125 -49.15625 C 32.707031 -49.15625 33.390625 -48.773438 33.859375 -48.015625 C 34.328125 -47.253906 34.5625 -46.378906 34.5625 -45.390625 C 34.5625 -44.316406 34.316406 -43.398438 33.828125 -42.640625 C 33.335938 -41.878906 32.664062 -41.5 31.8125 -41.5 L 12.78125 -41.5 L 12.78125 -28.046875 L 23 -28.046875 C 23.851562 -28.046875 24.523438 -27.695312 25.015625 -27 C 25.503906 -26.300781 25.75 -25.484375 25.75 -24.546875 C 25.75 -23.691406 25.515625 -22.914062 25.046875 -22.21875 C 24.578125 -21.53125 23.894531 -21.1875 23 -21.1875 L 12.78125 -21.1875 L 12.78125 -7.671875 L 31.8125 -7.671875 C 32.664062 -7.671875 33.335938 -7.285156 33.828125 -6.515625 C 34.316406 -5.753906 34.5625 -4.835938 34.5625 -3.765625 C 34.5625 -2.773438 34.328125 -1.898438 33.859375 -1.140625 C 33.390625 -0.378906 32.707031 0 31.8125 0 L 7.875 0 C 6.84375 0 5.941406 -0.242188 5.171875 -0.734375 C 4.410156 -1.234375 4.03125 -1.90625 4.03125 -2.75 Z M 4.03125 -2.75 "/></g></g></g><g fill="#ffffff" fill-opacity="1"><g transform="translate(118.877668, 344.631246)"><g><path d="M 0.609375 -45.65625 C 0.609375 -46.601562 1.210938 -47.421875 2.421875 -48.109375 C 3.628906 -48.804688 4.882812 -49.15625 6.1875 -49.15625 C 7.800781 -49.15625 8.765625 -48.570312 9.078125 -47.40625 L 19.703125 -10.96875 L 25.421875 -34.359375 C 25.828125 -35.972656 27.257812 -36.78125 29.71875 -36.78125 C 32.144531 -36.78125 33.5625 -35.972656 33.96875 -34.359375 L 39.671875 -10.96875 L 50.296875 -47.40625 C 50.617188 -48.570312 51.582031 -49.15625 53.1875 -49.15625 C 54.488281 -49.15625 55.742188 -48.804688 56.953125 -48.109375 C 58.171875 -47.421875 58.78125 -46.601562 58.78125 -45.65625 C 58.78125 -45.394531 58.734375 -45.128906 58.640625 -44.859375 L 45.328125 -2.5625 C 44.648438 -0.582031 42.742188 0.40625 39.609375 0.40625 C 38.265625 0.40625 37.050781 0.148438 35.96875 -0.359375 C 34.894531 -0.878906 34.25 -1.613281 34.03125 -2.5625 L 29.71875 -20.71875 L 25.359375 -2.5625 C 25.128906 -1.613281 24.472656 -0.878906 23.390625 -0.359375 C 22.316406 0.148438 21.109375 0.40625 19.765625 0.40625 C 18.378906 0.40625 17.144531 0.148438 16.0625 -0.359375 C 14.988281 -0.878906 14.320312 -1.613281 14.0625 -2.5625 L 0.734375 -44.859375 C 0.648438 -45.128906 0.609375 -45.394531 0.609375 -45.65625 Z M 0.609375 -45.65625 "/></g></g></g><g fill="#ffffff" fill-opacity="1"><g transform="translate(178.252588, 344.631246)"><g><path d="M 0.609375 -3.625 C 0.609375 -3.71875 0.648438 -3.941406 0.734375 -4.296875 L 13.71875 -46.609375 C 13.988281 -47.546875 14.648438 -48.269531 15.703125 -48.78125 C 16.753906 -49.300781 17.953125 -49.5625 19.296875 -49.5625 C 20.640625 -49.5625 21.847656 -49.300781 22.921875 -48.78125 C 24.003906 -48.269531 24.679688 -47.546875 24.953125 -46.609375 L 37.921875 -4.296875 C 38.015625 -3.941406 38.0625 -3.71875 38.0625 -3.625 C 38.0625 -2.644531 37.457031 -1.796875 36.25 -1.078125 C 35.039062 -0.359375 33.804688 0 32.546875 0 C 30.890625 0 29.90625 -0.582031 29.59375 -1.75 L 27.03125 -10.6875 L 11.640625 -10.6875 L 9.078125 -1.75 C 8.765625 -0.582031 7.78125 0 6.125 0 C 4.820312 0 3.578125 -0.34375 2.390625 -1.03125 C 1.203125 -1.726562 0.609375 -2.59375 0.609375 -3.625 Z M 13.453125 -17.546875 L 25.15625 -17.546875 L 19.296875 -38.203125 Z M 13.453125 -17.546875 "/></g></g></g><g fill="#ffffff" fill-opacity="1"><g transform="translate(216.916884, 344.631246)"><g><path d="M 0.8125 -45.265625 C 0.8125 -46.296875 1.046875 -47.203125 1.515625 -47.984375 C 1.984375 -48.765625 2.664062 -49.15625 3.5625 -49.15625 L 32.015625 -49.15625 C 32.910156 -49.15625 33.59375 -48.765625 34.0625 -47.984375 C 34.53125 -47.203125 34.765625 -46.296875 34.765625 -45.265625 C 34.765625 -44.179688 34.515625 -43.25 34.015625 -42.46875 C 33.523438 -41.6875 32.859375 -41.296875 32.015625 -41.296875 L 22.1875 -41.296875 L 22.1875 -2.75 C 22.1875 -1.90625 21.75 -1.234375 20.875 -0.734375 C 20 -0.242188 18.984375 0 17.828125 0 C 16.609375 0 15.570312 -0.242188 14.71875 -0.734375 C 13.875 -1.234375 13.453125 -1.90625 13.453125 -2.75 L 13.453125 -41.296875 L 3.5625 -41.296875 C 2.707031 -41.296875 2.035156 -41.675781 1.546875 -42.4375 C 1.054688 -43.195312 0.8125 -44.140625 0.8125 -45.265625 Z M 0.8125 -45.265625 "/></g></g></g><g fill="#ffffff" fill-opacity="1"><g transform="translate(252.420792, 344.631246)"><g><path d="M 3.5625 -15 L 3.5625 -33.765625 C 3.5625 -39.046875 4.992188 -42.929688 7.859375 -45.421875 C 10.734375 -47.910156 14.476562 -49.15625 19.09375 -49.15625 C 23.800781 -49.15625 27.644531 -47.988281 30.625 -45.65625 C 33.613281 -43.332031 35.109375 -40.238281 35.109375 -36.375 C 35.109375 -34.71875 34.769531 -33.585938 34.09375 -32.984375 C 33.425781 -32.378906 32.304688 -32.078125 30.734375 -32.078125 C 27.859375 -32.078125 26.398438 -32.992188 26.359375 -34.828125 C 26.316406 -35.410156 26.257812 -35.914062 26.1875 -36.34375 C 26.125 -36.769531 25.945312 -37.332031 25.65625 -38.03125 C 25.363281 -38.726562 24.992188 -39.3125 24.546875 -39.78125 C 24.097656 -40.25 23.425781 -40.648438 22.53125 -40.984375 C 21.632812 -41.328125 20.582031 -41.5 19.375 -41.5 C 14.664062 -41.5 12.3125 -38.921875 12.3125 -33.765625 L 12.3125 -15 C 12.3125 -9.84375 14.707031 -7.265625 19.5 -7.265625 C 20.9375 -7.265625 22.132812 -7.488281 23.09375 -7.9375 C 24.0625 -8.382812 24.757812 -9.019531 25.1875 -9.84375 C 25.613281 -10.675781 25.90625 -11.414062 26.0625 -12.0625 C 26.21875 -12.71875 26.316406 -13.515625 26.359375 -14.453125 C 26.492188 -16.296875 27.929688 -17.21875 30.671875 -17.21875 C 32.234375 -17.21875 33.363281 -16.914062 34.0625 -16.3125 C 34.757812 -15.707031 35.109375 -14.570312 35.109375 -12.90625 C 35.109375 -8.875 33.613281 -5.644531 30.625 -3.21875 C 27.644531 -0.800781 23.78125 0.40625 19.03125 0.40625 C 14.414062 0.40625 10.679688 -0.835938 7.828125 -3.328125 C 4.984375 -5.816406 3.5625 -9.707031 3.5625 -15 Z M 3.5625 -15 "/></g></g></g><g fill="#ffffff" fill-opacity="1"><g transform="translate(289.40402, 344.631246)"><g><path d="M 4.03125 -2.75 L 4.03125 -46.46875 C 4.03125 -47.363281 4.457031 -48.035156 5.3125 -48.484375 C 6.164062 -48.929688 7.195312 -49.15625 8.40625 -49.15625 C 9.613281 -49.15625 10.644531 -48.929688 11.5 -48.484375 C 12.351562 -48.035156 12.78125 -47.363281 12.78125 -46.46875 L 12.78125 -28.921875 L 27.90625 -28.921875 L 27.90625 -46.46875 C 27.90625 -47.363281 28.332031 -48.035156 29.1875 -48.484375 C 30.039062 -48.929688 31.070312 -49.15625 32.28125 -49.15625 C 33.488281 -49.15625 34.519531 -48.929688 35.375 -48.484375 C 36.226562 -48.035156 36.65625 -47.363281 36.65625 -46.46875 L 36.65625 -2.75 C 36.65625 -1.90625 36.21875 -1.234375 35.34375 -0.734375 C 34.46875 -0.242188 33.445312 0 32.28125 0 C 31.070312 0 30.039062 -0.242188 29.1875 -0.734375 C 28.332031 -1.234375 27.90625 -1.90625 27.90625 -2.75 L 27.90625 -22.0625 L 12.78125 -22.0625 L 12.78125 -2.75 C 12.78125 -1.90625 12.34375 -1.234375 11.46875 -0.734375 C 10.59375 -0.242188 9.570312 0 8.40625 0 C 7.195312 0 6.164062 -0.242188 5.3125 -0.734375 C 4.457031 -1.234375 4.03125 -1.90625 4.03125 -2.75 Z M 4.03125 -2.75 "/></g></g></g></svg>